<?xml version="1.0" encoding="UTF-8"?>
<svg version="1.1" viewBox="0 0 2048 902" width="200" height="200" xmlns="http://www.w3.org/2000/svg">
<path transform="translate(1121,67)" d="m0 0h75l1 1v516l-1 1h-72l-1-1-1-38-1-13-7 9-11 12-11 9-11 8-23 12-17 5-24 3h-17l-21-2-17-3-14-5-18-8-16-10-16-13-14-14-6-8-9-14-8-16-7-19-4-11-3-19-1-10v-37l3-27 4-12 8-23 8-16 6-10 11-13 6-7 20-16 13-8 15-7 15-5 30-5 10-1h17l25 4 16 4 12 5 17 9 14 10 13 12 8 9 7 12v-10l-3-40zm-116 250-17 4-12 5-12 7-7 6v2l-4 2v2h-2l-9 12-8 15-4 12-3 23v29l3 23 5 15 9 17 9 11 10 9 10 6 19 7 16 3h23l12-2 25-10 8-6 11-9 8-9 7-10 5-10 7-21 1-7v-37l-3-14-7-20-7-13-7-9-8-9-15-11-17-8-13-4-7-1z" fill="#3EB5FD"/>
<path transform="translate(42,67)" d="m0 0h75l1 16-1 192-2 34-1 6h2l2-6 12-14 13-12 17-11 16-8 13-5 16-4 21-3h18l24 3 18 4 12 4 17 8 16 11 8 7 12 11 9 11 9 14 7 12 9 24 4 15 3 29v38l-3 23-4 15-9 22-9 16-14 19-14 14-10 8-15 10-16 8-21 8-25 4-11 1h-17l-28-3-16-5-20-10-19-14-8-7-10-13-3-4-3-1v27l-1 24h-74zm167 250-16 3-14 5-13 7-14 12-8 8-9 13-5 10-5 23-1 7v29l4 24 4 12 9 16 7 9 5 6 11 9 9 6 11 5 10 4 12 2h29l14-3 21-9 7-5 5-5 4-3v-2l3-1 9-14 5-7 6-20 4-21v-28l-5-26-5-15-11-18-9-10-8-7-15-8-15-5-9-2-9-1z" fill="#3EB5FD"/>
<path transform="translate(1552,67)" d="m0 0h74l1 1v517h-72l-1-1-2-50-4 5-11 13-11 9-13 10-17 9-15 6-14 3-20 2h-15l-21-2-17-3-17-6-20-9-5-4-14-10-10-9-12-12-11-15-8-13-7-15-6-16-4-21-2-19v-31l2-22 4-22 10-26 5-10 10-15 11-13 7-7 11-9 10-7 14-8 21-8 20-4 25-3h15l27 4 19 5 22 11 14 10 10 9 7 6 7 9 4 6-1-36zm-114 250-15 3-14 5-11 6-13 12-7 8-10 16-5 15-5 22-1 10v16l3 19 5 21 8 16 7 10 7 8 6 5h2l2 4 8 4 18 7 17 3h23l15-3 20-8 10-7 7-5v-2l4-2 11-13 8-14 4-12 4-19 1-9v-17l-3-19-5-20-8-16-8-11-10-10-13-10-17-8-14-4-6-1z" fill="#3EB5FD"/>
<path transform="translate(1689,260)" d="m0 0 85 1 3 7 14 43 7 19 12 36 16 49 10 30 7 20 9 30 7 15v2h2l3-14 11-36 11-32 7-19 10-28 10-29 11-31 8-24 7-19 5-17 1-2 82-1 1 5-8 23-7 16-20 50-11 28-18 46-24 60-11 28-12 31-11 27-6 16-5 11-6 16-11 27-20 52-11 27-6 15-5 12-3 10-2 2h-78l1-6 12-30 20-48 12-28 13-32 9-20-1-9-14-36-8-20-11-27-5-13-5-11-8-21-17-43-13-32-8-18-6-17-7-16-13-34-11-27-4-12z" fill="#3FB5FD"/>
<path transform="translate(468,261)" d="m0 0h76l1 181 2 28 5 25 4 10 7 9 9 6 10 5 15 2h18l16-3 19-10 10-9 5-4 12-16 6-16 3-17 1-191h76l1 323-1 1h-61l-3-7-5-31v-6l-6 1-2 5-9 10-7 7-17 12-17 8-16 4-14 2-15 1h-12l-24-2-16-3-13-5-14-8-10-9-7-9-9-16-5-12-7-21-3-16-2-22-1-136z" fill="#3EB5FD"/>
<path transform="translate(1134,737)" d="m0 0 3 1 6 10 13 13 19 14 14 9 23 12 29 11 26 6 25 4 11 1h40l23-3 28-6 21-7 22-9 22-12 16-11 14-11 12-12 8-10 4 1 9 10 12 10v5l-8 11-19 19-11 9-15 11-18 10-19 10-28 11-36 10-18 3-15 1h-53l-21-2-18-4-20-5-17-6-20-9-16-8-18-10-14-10-11-9-22-22-7-9v-2h-2l1-4 11-9 9-9z" fill="#40B5FD"/>
<path transform="translate(42,67)" d="m0 0h38v1l-28 1-7 1v511l1 2 19 1v1h-23z" fill="#86D2FD"/>
<path transform="translate(1552,67)" d="m0 0h74l1 1v517h-72l-1-4 1 2 70 1v-376l1-138h-27l-46-1v207h-1z" fill="#9AD9FD"/>
<path transform="translate(468,261)" d="m0 0h76v177h-1l-1-35v-140h-73l2 88 1 116 1 17v12h-1l-2-15-1-13-1-136z" fill="#87D2FD"/>
<path transform="translate(1121,67)" d="m0 0h75l1 1v516l-1 1h-35v-1l33-1 1-5 1-507-9-1h-64l-2 2z" fill="#86D2FD"/>
<path transform="translate(687,261)" d="m0 0h76v2h-73l1 114-2 60-1 9h-1z" fill="#8BD4FD"/>
<path transform="translate(1552,67)" d="m0 0h64l7 1 3 2h-27l-46-1v207h-1z" fill="#86D2FD"/>
<path transform="translate(1689,260)" d="m0 0 85 1 1 2h-83v5l-2-3z" fill="#98D9FD"/>
<path transform="translate(849,375)" d="m0 0h1l-1 83h-1l-2-19v-37z" fill="#8FD5FD"/>
<path transform="translate(226,252)" d="m0 0h18l24 3 4 2-27-1h-20l-25 1v-1z" fill="#9FDBFD"/>
<path transform="translate(2020,260)" d="m0 0h7l1 5-1-2h-82v-2z" fill="#A0DBFD"/>
<path transform="translate(1121,529)" d="m0 0h3l1 9 1 46h30v1h-32l-1-1-1-38z" fill="#86D2FD"/>
<path transform="translate(1428,252)" d="m0 0h15l27 4v1l-36-1h-31v-1z" fill="#9DDAFD"/>
<path transform="translate(995,252)" d="m0 0h17l25 4v1l-31-1h-35v-1z" fill="#A4DDFD"/>
<path transform="translate(1755,754)" d="m0 0h1l2 6h71l4-2-2 4h-78l1-6z" fill="#87D2FD"/>
<path transform="translate(1509,737)" d="m0 0 4 1 9 10 1 2-4-2-3-3h-9l-6 5-2-1z" fill="#8AD3FD"/>
<path transform="translate(1124,745)" d="m0 0 1 3-6 8-1 2h-6l1 8-3-2v-2h-2l1-4 11-9z" fill="#86D2FD"/>
<path transform="translate(1730,364)" d="m0 0 3 3 8 20 6 16-1 3-11-27-5-11z" fill="#89D3FD"/>
<path transform="translate(1134,737)" d="m0 0 3 1 6 10 1 2-4-2-7-4h-5-3l7-6z" fill="#89D3FD"/>
<path transform="translate(1339,281)" d="m0 0 2 1-9 9-11 9-5 4 2-4 9-9 11-9z" fill="#86D2FD"/>
<path transform="translate(886,537)" d="m0 0 4 2 16 14 1 3-4-2-8-7-9-9z" fill="#86D2FD"/>
<path transform="translate(202,316)" d="m0 0h20v1l-21 2-10 2 1-3z" fill="#86D2FD"/>
<path transform="translate(1543,541)" d="m0 0 2 1-8 10-11 9-4 2 5-6 8-7 7-7z" fill="#88D2FD"/>
<path transform="translate(1182,781)" d="m0 0 5 2 23 12-3 1-12-6-11-6z" fill="#86D2FD"/>
<path transform="translate(1540,381)" d="m0 0 2 2 3 9 2 15-2 1-5-24z" fill="#86D2FD"/>
<path transform="translate(1139,793)" d="m0 0 7 4 9 7 2 4-4-2-10-8-4-3z" fill="#86D2FD"/>
<path transform="translate(1526,752)" d="m0 0 8 6v5l-6 8-1-2 3-4v-8l-4-3z" fill="#86D2FD"/>
<path transform="translate(896,291)" d="m0 0v3l-13 13v-3l9-10z" fill="#6CC7FD"/>
<path transform="translate(985,253)" d="m0 0 4 1-1 2h-17v-1z" fill="#95D7FD"/>
<path transform="translate(1417,253)" d="m0 0 3 1-2 2h-15v-1z" fill="#92D6FD"/>
</svg>
