<svg width="20" height="30" viewBox="0 0 20 30" fill="none" xmlns="http://www.w3.org/2000/svg" xmlns:xlink="http://www.w3.org/1999/xlink">
<path d="M15.555,29.161C16.196,29.686 17.141,29.591 17.666,28.95C18.19,28.309 18.096,27.364 17.455,26.839L15.555,29.161ZM0.768,15.125L-0.181,13.964C-0.53,14.249 -0.732,14.675 -0.732,15.125C-0.732,15.575 -0.53,16.001 -0.181,16.286L0.768,15.125ZM17.455,3.411C18.096,2.886 18.19,1.941 17.666,1.3C17.141,0.659 16.196,0.564 15.555,1.089L17.455,3.411ZM17.455,26.839L1.718,13.964L-0.181,16.286L15.555,29.161L17.455,26.839ZM1.718,16.286L17.455,3.411L15.555,1.089L-0.181,13.964L1.718,16.286Z" transform="matrix(-1 0 0 1 20 0)" fill="#2D0C57"/>
</svg>