<svg width="24" height="24" viewBox="0 0 24 24" fill="none" xmlns="http://www.w3.org/2000/svg" xmlns:xlink="http://www.w3.org/1999/xlink">
<path d="M14.081,2.095L16.116,6.202C16.393,6.773 17.133,7.322 17.757,7.427L21.444,8.045C23.802,8.442 24.357,10.168 22.658,11.872L19.791,14.765C19.306,15.255 19.04,16.2 19.19,16.877L20.011,20.458C20.658,23.293 19.167,24.39 16.682,22.908L13.226,20.843C12.602,20.47 11.573,20.47 10.937,20.843L7.481,22.908C5.007,24.39 3.504,23.282 4.152,20.458L4.972,16.877C5.123,16.2 4.857,15.255 4.371,14.765L1.505,11.872C-0.183,10.168 0.36,8.442 2.718,8.045L6.406,7.427C7.018,7.322 7.758,6.773 8.036,6.202L10.07,2.095C11.18,-0.133 12.983,-0.133 14.081,2.095Z" fill="#FFCD1A"/>
</svg>
